<svg xmlns="http://www.w3.org/2000/svg" viewBox="0 0 1280 640" fill="none">
  <title>lacy — Talk to your shell — commands run, questions go to AI</title>
  <defs>
    <radialGradient id="g" cx="80%" cy="20%" r="80%">
      <stop offset="0%" stop-color="#10b981" stop-opacity="0.20"/>
      <stop offset="60%" stop-color="#0a0510" stop-opacity="0"/>
    </radialGradient>
    <pattern id="grid" width="40" height="40" patternUnits="userSpaceOnUse">
      <path d="M 40 0 L 0 0 0 40" fill="none" stroke="#ffffff" stroke-opacity="0.04" stroke-width="1"/>
    </pattern>
  </defs>
  <rect width="1280" height="640" fill="#0a0510"/>
  <rect width="1280" height="640" fill="url(#grid)"/>
  <rect width="1280" height="640" fill="url(#g)"/>

  <!-- Large decorative mark on right (low opacity) -->
  <g transform="translate(820, 120) scale(1.7)" opacity="0.10">
    <rect x="0" y="0" width="256" height="256" rx="56" fill="#10b981"/>
    
			<path d="M70 80 L110 128 L70 176" stroke="#ffffff" stroke-width="20" stroke-linecap="round" stroke-linejoin="round" fill="none"/>
			<rect x="124" y="166" width="68" height="14" rx="4" fill="#ffffff"/>
  </g>

  <!-- Small primary mark, top-left -->
  <g transform="translate(96, 96) scale(0.47)">
    <rect x="0" y="0" width="256" height="256" rx="56" fill="#10b981"/>
    
			<path d="M70 80 L110 128 L70 176" stroke="#ffffff" stroke-width="20" stroke-linecap="round" stroke-linejoin="round" fill="none"/>
			<rect x="124" y="166" width="68" height="14" rx="4" fill="#ffffff"/>
  </g>

  <!-- Package-type pill, top-right -->
  <g transform="translate(994, 80)">
    <rect x="0" y="0" width="190" height="36" rx="18" fill="#10b981" fill-opacity="0.16" stroke="#10b981" stroke-opacity="0.50" stroke-width="1"/>
    <g transform="translate(18, 24.5)"><path fill="#10b981" d="M7.42 0.21L7.42 0.21Q4.42 0.21 2.62-1.15Q0.82-2.51 0.77-5.29L0.77-5.29L4.42-5.29Q4.48-4.11 5.28-3.52Q6.08-2.93 7.38-2.93L7.38-2.93Q8.56-2.93 9.24-3.41Q9.92-3.89 9.92-4.65L9.92-4.65Q9.92-5.34 9.28-5.74Q8.64-6.14 7.33-6.45L7.33-6.45L5.63-6.84Q3.56-7.32 2.37-8.39Q1.19-9.46 1.19-11.27L1.19-11.27Q1.19-12.75 1.99-13.86Q2.79-14.97 4.20-15.60Q5.61-16.22 7.42-16.22L7.42-16.22Q9.28-16.22 10.65-15.59Q12.01-14.96 12.76-13.84Q13.51-12.72 13.54-11.24L13.54-11.24L9.89-11.24Q9.82-12.11 9.18-12.59Q8.55-13.07 7.41-13.07L7.41-13.07Q6.27-13.07 5.69-12.63Q5.11-12.19 5.11-11.53L5.11-11.53Q5.11-10.79 5.76-10.38Q6.40-9.98 7.48-9.74L7.48-9.74L8.86-9.42Q11.18-8.91 12.47-7.73Q13.75-6.56 13.75-4.64L13.75-4.64Q13.75-2.36 12.07-1.07Q10.40 0.21 7.42 0.21ZM20.88 0L17.09 0L17.09-16.01L20.88-16.01L20.88-9.72L27.27-9.72L27.27-16.01L31.05-16.01L31.05 0L27.27 0L27.27-6.63L20.88-6.63L20.88 0ZM45.97 0L34.88 0L34.88-16.01L45.98-16.01L45.98-12.91L38.67-12.91L38.67-9.60L45.40-9.60L45.40-6.57L38.67-6.57L38.67-3.09L45.97-3.09L45.97 0ZM60.10 0L49.61 0L49.61-16.01L53.41-16.01L53.41-3.09L60.10-3.09L60.10 0ZM73.86 0L63.37 0L63.37-16.01L67.17-16.01L67.17-3.09L73.86-3.09L73.86 0ZM85.90-5.58L85.90-5.58Q85.04-5.58 84.45-6.15Q83.87-6.72 83.87-7.57L83.87-7.57Q83.87-8.43 84.45-9.01Q85.04-9.58 85.90-9.58L85.90-9.58Q86.76-9.58 87.34-9.01Q87.93-8.43 87.93-7.57L87.93-7.57Q87.93-6.72 87.34-6.15Q86.76-5.58 85.90-5.58ZM102.36 0L98.47 0L98.47-16.01L102.64-16.01L107.11-8.78Q107.65-7.88 108.15-6.92Q108.66-5.95 109.16-4.64L109.16-4.64Q109.08-5.84 109.01-7.10Q108.94-8.36 108.94-9.20L108.94-9.20L108.94-16.01L112.83-16.01L112.83 0L108.65 0L104.55-6.63Q104.08-7.40 103.70-8.10Q103.32-8.80 102.95-9.56Q102.58-10.32 102.13-11.28L102.13-11.28Q102.22-9.86 102.29-8.62Q102.36-7.38 102.36-6.63L102.36-6.63L102.36 0ZM120.43 0L116.64 0L116.64-16.01L123.19-16.01Q125.00-16.01 126.31-15.31Q127.62-14.61 128.32-13.36Q129.02-12.12 129.02-10.47L129.02-10.47Q129.02-8.82 128.30-7.59Q127.58-6.36 126.25-5.68Q124.92-5.00 123.08-5.00L123.08-5.00L120.43-5.00L120.43 0ZM120.43-12.93L120.43-7.99L122.40-7.99Q123.73-7.99 124.41-8.67Q125.09-9.36 125.09-10.47L125.09-10.47Q125.09-11.60 124.40-12.27Q123.72-12.93 122.38-12.93L122.38-12.93L120.43-12.93ZM136.10 0L132.30 0L132.30-16.01L138.21-16.01L140.25-9.78Q140.41-9.23 140.62-8.35Q140.83-7.47 141.04-6.45Q141.26-5.42 141.45-4.47L141.45-4.47Q141.63-5.42 141.84-6.44Q142.05-7.46 142.26-8.34Q142.47-9.23 142.63-9.78L142.63-9.78L144.64-16.01L150.56-16.01L150.56 0L146.75 0L146.75-6.90Q146.75-7.51 146.77-8.50Q146.80-9.50 146.83-10.66Q146.87-11.82 146.89-12.89L146.89-12.89Q146.62-11.75 146.32-10.60Q146.03-9.45 145.76-8.48Q145.49-7.51 145.30-6.90L145.30-6.90L143.02 0L139.85 0L137.54-6.90Q137.36-7.49 137.09-8.42Q136.82-9.36 136.53-10.47Q136.23-11.58 135.96-12.71L135.96-12.71Q135.98-11.66 136.02-10.54Q136.05-9.42 136.07-8.46Q136.10-7.50 136.10-6.90L136.10-6.90L136.10 0Z"/></g>
  </g>

  <!-- Wordmark + tagline -->
  <path fill="#fafafa" d="M185.31 360L109.06 360L109.06 243.59L136.64 243.59L136.64 337.50L185.31 337.50L185.31 360ZM215.91 361.56L215.91 361.56Q203.33 361.56 195.24 355.16Q187.16 348.75 187.16 335.78L187.16 335.78Q187.16 326.09 191.61 320.39Q196.06 314.69 203.45 311.95Q210.83 309.22 219.66 308.44L219.66 308.44Q230.75 307.50 235.55 306.13Q240.36 304.77 240.36 300.70L240.36 300.70L240.36 300.39Q240.36 295.86 237.20 293.40Q234.03 290.94 228.48 290.94L228.48 290.94Q222.78 290.94 219.11 293.36Q215.44 295.78 214.34 299.92L214.34 299.92L189.66 296.72Q192.23 285.55 202.27 278.55Q212.31 271.56 228.72 271.56L228.72 271.56Q239.58 271.56 248.37 274.92Q257.16 278.28 262.35 284.80Q267.55 291.33 267.55 300.70L267.55 300.70L267.55 360L241.92 360L241.92 347.73L241.22 347.73Q233.95 361.56 215.91 361.56ZM224.19 343.52L224.19 343.52Q231.06 343.52 235.83 339.45Q240.59 335.39 240.59 328.91L240.59 328.91L240.59 320.55Q238.25 321.80 233.80 322.66Q229.34 323.52 225.52 324.14L225.52 324.14Q212.94 326.02 212.94 334.53L212.94 334.53Q212.94 338.91 216.10 341.21Q219.27 343.52 224.19 343.52ZM318.14 361.64L318.14 361.64Q304.47 361.64 294.63 355.98Q284.78 350.31 279.51 340.20Q274.23 330.08 274.23 316.64L274.23 316.64Q274.23 303.20 279.51 293.05Q284.78 282.89 294.63 277.23Q304.47 271.56 318.14 271.56L318.14 271.56Q334.86 271.56 345.60 279.92Q356.34 288.28 358.38 302.58L358.38 302.58L333.22 306.80Q331.89 299.92 328.18 296.17Q324.47 292.42 318.45 292.42L318.45 292.42Q310.64 292.42 306.34 298.79Q302.05 305.16 302.05 316.48L302.05 316.48Q302.05 327.73 306.34 334.26Q310.64 340.78 318.45 340.78L318.45 340.78Q324.47 340.78 328.26 336.88Q332.05 332.97 333.30 325.94L333.30 325.94L358.45 330Q356.42 344.69 345.72 353.16Q335.02 361.64 318.14 361.64ZM364.59 390.63L364.59 390.63L370.69 370.70L374.13 371.64Q381.47 373.59 386 371.41Q390.53 369.22 390.22 363.83L390.22 363.83L390.14 360.16L357.56 272.66L386.31 272.66L399.36 315.39Q401.08 321.02 402.25 326.64Q403.42 332.27 404.52 338.13L404.52 338.13Q405.84 332.19 407.33 326.56Q408.81 320.94 410.61 315.39L410.61 315.39L424.59 272.66L453.03 272.66L416.39 369.22Q412.41 379.84 404.52 386.56Q396.63 393.28 381.94 393.28L381.94 393.28Q371.39 393.28 364.59 390.63Z"/>
  <path fill="#34d399" d="M108.08 391.22L101.03 391.22L101.03 386.72L120.63 386.72L120.63 391.22L113.58 391.22L113.58 410L108.08 410L108.08 391.22ZM128.02 410.31L128.02 410.31Q125.51 410.31 123.89 409.03Q122.27 407.75 122.27 405.16L122.27 405.16Q122.27 403.22 123.16 402.08Q124.06 400.94 125.53 400.39Q127.01 399.84 128.77 399.69L128.77 399.69Q130.99 399.50 131.95 399.23Q132.91 398.95 132.91 398.14L132.91 398.14L132.91 398.08Q132.91 397.17 132.28 396.68Q131.65 396.19 130.54 396.19L130.54 396.19Q129.40 396.19 128.66 396.67Q127.93 397.16 127.71 397.98L127.71 397.98L122.77 397.34Q123.29 395.11 125.30 393.71Q127.31 392.31 130.59 392.31L130.59 392.31Q132.76 392.31 134.52 392.98Q136.27 393.66 137.31 394.96Q138.35 396.27 138.35 398.14L138.35 398.14L138.35 410L133.23 410L133.23 407.55L133.09 407.55Q131.63 410.31 128.02 410.31ZM129.68 406.70L129.68 406.70Q131.06 406.70 132.01 405.89Q132.96 405.08 132.96 403.78L132.96 403.78L132.96 402.11Q132.49 402.36 131.60 402.53Q130.71 402.70 129.95 402.83L129.95 402.83Q127.43 403.20 127.43 404.91L127.43 404.91Q127.43 405.78 128.06 406.24Q128.70 406.70 129.68 406.70ZM141.64 386.72L147.09 386.72L147.09 410L141.64 410L141.64 386.72ZM155.84 410L150.38 410L150.38 386.72L155.84 386.72L155.84 398.84L156.09 398.84L161.09 392.53L167.29 392.53L161.06 400.16L167.54 410L161.24 410L156.99 403.33L155.84 404.70L155.84 410ZM181.99 392.53L185.13 392.53L185.13 396.58L181.99 396.58L181.99 404.66Q181.99 406.02 183.38 406.02L183.38 406.02Q183.67 406.02 184.17 405.95Q184.68 405.88 184.90 405.83L184.90 405.83L185.60 409.80Q184.68 410.06 183.82 410.16Q182.96 410.25 182.20 410.25L182.20 410.25Q179.42 410.25 177.98 408.95Q176.54 407.64 176.54 405.14L176.54 405.14L176.54 396.58L174.23 396.58L174.23 392.53L176.54 392.53L176.54 388.38L181.99 388.38L181.99 392.53ZM195.72 410.33L195.72 410.33Q192.99 410.33 191.02 409.20Q189.05 408.06 187.99 406.04Q186.94 404.02 186.94 401.33L186.94 401.33Q186.94 398.64 187.99 396.61Q189.05 394.58 191.02 393.45Q192.99 392.31 195.72 392.31L195.72 392.31Q198.46 392.31 200.42 393.45Q202.38 394.58 203.43 396.61Q204.49 398.64 204.49 401.33L204.49 401.33Q204.49 404.02 203.43 406.04Q202.38 408.06 200.42 409.20Q198.46 410.33 195.72 410.33ZM195.72 406.16L195.72 406.16Q197.28 406.16 198.11 404.82Q198.94 403.48 198.94 401.30L198.94 401.30Q198.94 399.11 198.11 397.80Q197.28 396.48 195.72 396.48L195.72 396.48Q194.16 396.48 193.33 397.80Q192.50 399.11 192.50 401.30L192.50 401.30Q192.50 403.48 193.33 404.82Q194.16 406.16 195.72 406.16ZM213.74 416.13L213.74 416.13L214.96 412.14L215.64 412.33Q217.11 412.72 218.02 412.28Q218.92 411.84 218.86 410.77L218.86 410.77L218.85 410.03L212.33 392.53L218.08 392.53L220.69 401.08Q221.03 402.20 221.27 403.33Q221.50 404.45 221.72 405.63L221.72 405.63Q221.99 404.44 222.28 403.31Q222.58 402.19 222.94 401.08L222.94 401.08L225.74 392.53L231.42 392.53L224.10 411.84Q223.30 413.97 221.72 415.31Q220.14 416.66 217.21 416.66L217.21 416.66Q215.10 416.66 213.74 416.13ZM241.35 410.33L241.35 410.33Q238.62 410.33 236.65 409.20Q234.68 408.06 233.63 406.04Q232.57 404.02 232.57 401.33L232.57 401.33Q232.57 398.64 233.63 396.61Q234.68 394.58 236.65 393.45Q238.62 392.31 241.35 392.31L241.35 392.31Q244.09 392.31 246.05 393.45Q248.01 394.58 249.07 396.61Q250.12 398.64 250.12 401.33L250.12 401.33Q250.12 404.02 249.07 406.04Q248.01 408.06 246.05 409.20Q244.09 410.33 241.35 410.33ZM241.35 406.16L241.35 406.16Q242.92 406.16 243.75 404.82Q244.57 403.48 244.57 401.30L244.57 401.30Q244.57 399.11 243.75 397.80Q242.92 396.48 241.35 396.48L241.35 396.48Q239.79 396.48 238.96 397.80Q238.14 399.11 238.14 401.30L238.14 401.30Q238.14 403.48 238.96 404.82Q239.79 406.16 241.35 406.16ZM258.80 410.22L258.80 410.22Q256.05 410.22 254.39 408.42Q252.74 406.63 252.74 403.66L252.74 403.66L252.74 392.53L258.19 392.53L258.19 402.59Q258.19 404.06 258.95 404.90Q259.71 405.73 261.03 405.73L261.03 405.73Q262.38 405.73 263.20 404.88Q264.02 404.03 264.02 402.50L264.02 402.50L264.02 392.53L269.47 392.53L269.47 410L264.35 410L264.27 406.22Q263.57 408.05 262.24 409.13Q260.91 410.22 258.80 410.22ZM278.20 410L272.75 410L272.75 392.53L278.04 392.53L278.04 395.72L278.23 395.72Q278.70 394 279.78 393.16Q280.87 392.31 282.31 392.31L282.31 392.31Q283.11 392.31 283.86 392.50L283.86 392.50L283.86 397.25Q283.46 397.11 282.83 397.04Q282.20 396.97 281.70 396.97L281.70 396.97Q280.18 396.97 279.19 397.94Q278.20 398.91 278.20 400.47L278.20 400.47L278.20 410ZM299.90 410.33L299.90 410.33Q296.54 410.33 294.38 408.91Q292.22 407.50 291.76 405L291.76 405L296.82 404.20Q297.15 405.34 297.93 405.92Q298.72 406.50 300.11 406.50L300.11 406.50Q301.25 406.50 301.90 406.10Q302.56 405.70 302.56 405.05L302.56 405.05Q302.56 403.91 300.42 403.48L300.42 403.48L297.37 402.89Q292.20 401.91 292.20 397.86L292.20 397.86Q292.20 395.25 294.29 393.78Q296.37 392.31 299.89 392.31L299.89 392.31Q303.17 392.31 305.15 393.61Q307.14 394.91 307.59 397.16L307.59 397.16L302.78 397.92Q302.25 396.06 299.98 396.06L299.98 396.06Q299.00 396.06 298.32 396.46Q297.64 396.86 297.64 397.53L297.64 397.53Q297.64 398.06 298.06 398.46Q298.48 398.86 299.61 399.08L299.61 399.08L302.95 399.70Q308.09 400.67 308.09 404.42L308.09 404.42Q308.09 406.22 307.04 407.55Q305.98 408.88 304.14 409.60Q302.29 410.33 299.90 410.33ZM316.02 400.03L316.02 400.03L316.02 410L310.57 410L310.57 386.72L315.91 386.72L315.91 396Q316.61 394.31 317.92 393.31Q319.22 392.31 321.25 392.31L321.25 392.31Q323.99 392.31 325.65 394.11Q327.30 395.91 327.30 398.88L327.30 398.88L327.30 410L321.85 410L321.85 399.94Q321.85 398.47 321.10 397.63Q320.35 396.80 319.00 396.80L319.00 396.80Q317.68 396.80 316.85 397.65Q316.02 398.50 316.02 400.03ZM338.72 410.33L338.72 410.33Q334.61 410.33 332.25 407.93Q329.90 405.53 329.90 401.33L329.90 401.33Q329.90 398.64 330.96 396.61Q332.01 394.58 333.95 393.45Q335.89 392.31 338.51 392.31L338.51 392.31Q340.97 392.31 342.86 393.34Q344.76 394.36 345.85 396.35Q346.93 398.34 346.93 401.22L346.93 401.22L346.93 402.59L335.26 402.59Q335.34 404.48 336.30 405.43Q337.26 406.38 338.81 406.38L338.81 406.38Q339.90 406.38 340.70 405.91Q341.50 405.45 341.83 404.58L341.83 404.58L346.68 405.38Q346.03 407.64 343.96 408.98Q341.89 410.33 338.72 410.33ZM335.29 399.42L335.29 399.42L341.76 399.42Q341.61 397.94 340.79 397.10Q339.98 396.27 338.56 396.27L338.56 396.27Q337.12 396.27 336.29 397.12Q335.45 397.97 335.29 399.42ZM349.47 386.72L354.93 386.72L354.93 410L349.47 410L349.47 386.72ZM358.22 386.72L363.67 386.72L363.67 410L358.22 410L358.22 386.72ZM371.84 398.47L403.84 398.47L403.84 402.67L371.84 402.67L371.84 398.47ZM420.11 410.33L420.11 410.33Q417.37 410.33 415.41 409.20Q413.44 408.06 412.38 406.04Q411.33 404.02 411.33 401.33L411.33 401.33Q411.33 398.64 412.38 396.61Q413.44 394.58 415.41 393.45Q417.37 392.31 420.11 392.31L420.11 392.31Q423.45 392.31 425.60 393.98Q427.75 395.66 428.16 398.52L428.16 398.52L423.12 399.36Q422.86 397.98 422.12 397.23Q421.37 396.48 420.17 396.48L420.17 396.48Q418.61 396.48 417.75 397.76Q416.89 399.03 416.89 401.30L416.89 401.30Q416.89 403.55 417.75 404.85Q418.61 406.16 420.17 406.16L420.17 406.16Q421.37 406.16 422.13 405.38Q422.89 404.59 423.14 403.19L423.14 403.19L428.17 404Q427.76 406.94 425.62 408.63Q423.48 410.33 420.11 410.33ZM438.84 410.33L438.84 410.33Q436.10 410.33 434.13 409.20Q432.16 408.06 431.11 406.04Q430.05 404.02 430.05 401.33L430.05 401.33Q430.05 398.64 431.11 396.61Q432.16 394.58 434.13 393.45Q436.10 392.31 438.84 392.31L438.84 392.31Q441.57 392.31 443.53 393.45Q445.49 394.58 446.55 396.61Q447.60 398.64 447.60 401.33L447.60 401.33Q447.60 404.02 446.55 406.04Q445.49 408.06 443.53 409.20Q441.57 410.33 438.84 410.33ZM438.84 406.16L438.84 406.16Q440.40 406.16 441.23 404.82Q442.05 403.48 442.05 401.30L442.05 401.30Q442.05 399.11 441.23 397.80Q440.40 396.48 438.84 396.48L438.84 396.48Q437.27 396.48 436.44 397.80Q435.62 399.11 435.62 401.30L435.62 401.30Q435.62 403.48 436.44 404.82Q437.27 406.16 438.84 406.16ZM455.67 410L450.22 410L450.22 392.53L455.23 392.53L455.48 396Q456.20 394.03 457.57 393.16Q458.94 392.30 460.52 392.30L460.52 392.30Q462.17 392.30 463.27 393.25Q464.37 394.20 465.02 396.34L465.02 396.34Q465.81 394.19 467.37 393.24Q468.92 392.30 470.69 392.30L470.69 392.30Q473.14 392.30 474.71 393.88Q476.28 395.45 476.28 398.22L476.28 398.22L476.28 410L470.83 410L470.83 399.45Q470.83 398.13 470.14 397.44Q469.45 396.75 468.37 396.75L468.37 396.75Q467.22 396.75 466.55 397.51Q465.87 398.27 465.87 399.52L465.87 399.52L465.87 410L460.64 410L460.64 399.38Q460.64 398.17 459.96 397.46Q459.28 396.75 458.20 396.75L458.20 396.75Q457.09 396.75 456.38 397.50Q455.67 398.25 455.67 399.63L455.67 399.63L455.67 410ZM485.02 410L479.57 410L479.57 392.53L484.59 392.53L484.84 396Q485.55 394.03 486.92 393.16Q488.29 392.30 489.87 392.30L489.87 392.30Q491.52 392.30 492.62 393.25Q493.73 394.20 494.37 396.34L494.37 396.34Q495.16 394.19 496.72 393.24Q498.27 392.30 500.04 392.30L500.04 392.30Q502.49 392.30 504.06 393.88Q505.63 395.45 505.63 398.22L505.63 398.22L505.63 410L500.18 410L500.18 399.45Q500.18 398.13 499.49 397.44Q498.80 396.75 497.73 396.75L497.73 396.75Q496.57 396.75 495.90 397.51Q495.23 398.27 495.23 399.52L495.23 399.52L495.23 410L489.99 410L489.99 399.38Q489.99 398.17 489.31 397.46Q488.63 396.75 487.55 396.75L487.55 396.75Q486.45 396.75 485.73 397.50Q485.02 398.25 485.02 399.63L485.02 399.63L485.02 410ZM513.81 410.31L513.81 410.31Q511.30 410.31 509.68 409.03Q508.06 407.75 508.06 405.16L508.06 405.16Q508.06 403.22 508.95 402.08Q509.84 400.94 511.32 400.39Q512.80 399.84 514.56 399.69L514.56 399.69Q516.78 399.50 517.74 399.23Q518.70 398.95 518.70 398.14L518.70 398.14L518.70 398.08Q518.70 397.17 518.07 396.68Q517.44 396.19 516.33 396.19L516.33 396.19Q515.19 396.19 514.45 396.67Q513.72 397.16 513.50 397.98L513.50 397.98L508.56 397.34Q509.08 395.11 511.09 393.71Q513.09 392.31 516.38 392.31L516.38 392.31Q518.55 392.31 520.30 392.98Q522.06 393.66 523.10 394.96Q524.14 396.27 524.14 398.14L524.14 398.14L524.14 410L519.02 410L519.02 407.55L518.88 407.55Q517.42 410.31 513.81 410.31ZM515.47 406.70L515.47 406.70Q516.84 406.70 517.80 405.89Q518.75 405.08 518.75 403.78L518.75 403.78L518.75 402.11Q518.28 402.36 517.39 402.53Q516.50 402.70 515.73 402.83L515.73 402.83Q513.22 403.20 513.22 404.91L513.22 404.91Q513.22 405.78 513.85 406.24Q514.48 406.70 515.47 406.70ZM532.88 400.03L532.88 400.03L532.88 410L527.43 410L527.43 392.53L532.56 392.53L532.65 396.30Q533.34 394.48 534.66 393.40Q535.99 392.31 538.12 392.31L538.12 392.31Q540.85 392.31 542.51 394.11Q544.16 395.91 544.16 398.88L544.16 398.88L544.16 410L538.71 410L538.71 399.94Q538.71 398.47 537.96 397.63Q537.21 396.80 535.87 396.80L535.87 396.80Q534.54 396.80 533.71 397.65Q532.88 398.50 532.88 400.03ZM553.77 410.25L553.77 410.25Q551.83 410.25 550.24 409.24Q548.64 408.23 547.70 406.24Q546.77 404.25 546.77 401.28L546.77 401.28Q546.77 398.22 547.74 396.23Q548.72 394.25 550.31 393.28Q551.89 392.31 553.72 392.31L553.72 392.31Q555.11 392.31 556.09 392.79Q557.08 393.27 557.71 394.01Q558.34 394.75 558.67 395.53L558.67 395.53L558.80 395.53L558.80 386.72L564.24 386.72L564.24 410L558.86 410L558.86 407.17L558.67 407.17Q558.16 408.36 556.96 409.30Q555.77 410.25 553.77 410.25ZM555.63 406L555.63 406Q557.17 406 558.05 404.71Q558.92 403.42 558.92 401.28L558.92 401.28Q558.92 399.11 558.06 397.84Q557.19 396.58 555.63 396.58L555.63 396.58Q554.05 396.58 553.21 397.87Q552.38 399.16 552.38 401.28L552.38 401.28Q552.38 403.41 553.21 404.70Q554.05 406 555.63 406ZM574.88 410.33L574.88 410.33Q571.52 410.33 569.36 408.91Q567.20 407.50 566.74 405L566.74 405L571.81 404.20Q572.13 405.34 572.92 405.92Q573.70 406.50 575.09 406.50L575.09 406.50Q576.23 406.50 576.88 406.10Q577.54 405.70 577.54 405.05L577.54 405.05Q577.54 403.91 575.40 403.48L575.40 403.48L572.35 402.89Q567.18 401.91 567.18 397.86L567.18 397.86Q567.18 395.25 569.27 393.78Q571.35 392.31 574.87 392.31L574.87 392.31Q578.15 392.31 580.13 393.61Q582.12 394.91 582.57 397.16L582.57 397.16L577.76 397.92Q577.23 396.06 574.96 396.06L574.96 396.06Q573.98 396.06 573.30 396.46Q572.62 396.86 572.62 397.53L572.62 397.53Q572.62 398.06 573.04 398.46Q573.46 398.86 574.59 399.08L574.59 399.08L577.93 399.70Q583.07 400.67 583.07 404.42L583.07 404.42Q583.07 406.22 582.02 407.55Q580.96 408.88 579.12 409.60Q577.27 410.33 574.88 410.33ZM597.68 410L592.23 410L592.23 392.53L597.52 392.53L597.52 395.72L597.71 395.72Q598.18 394 599.27 393.16Q600.35 392.31 601.79 392.31L601.79 392.31Q602.59 392.31 603.34 392.50L603.34 392.50L603.34 397.25Q602.95 397.11 602.31 397.04Q601.68 396.97 601.18 396.97L601.18 396.97Q599.67 396.97 598.67 397.94Q597.68 398.91 597.68 400.47L597.68 400.47L597.68 410ZM611.41 410.22L611.41 410.22Q608.66 410.22 607.00 408.42Q605.35 406.63 605.35 403.66L605.35 403.66L605.35 392.53L610.80 392.53L610.80 402.59Q610.80 404.06 611.56 404.90Q612.31 405.73 613.64 405.73L613.64 405.73Q614.99 405.73 615.81 404.88Q616.63 404.03 616.63 402.50L616.63 402.50L616.63 392.53L622.08 392.53L622.08 410L616.95 410L616.88 406.22Q616.17 408.05 614.85 409.13Q613.52 410.22 611.41 410.22ZM630.81 400.03L630.81 400.03L630.81 410L625.35 410L625.35 392.53L630.48 392.53L630.57 396.30Q631.26 394.48 632.59 393.40Q633.92 392.31 636.04 392.31L636.04 392.31Q638.78 392.31 640.43 394.11Q642.09 395.91 642.09 398.88L642.09 398.88L642.09 410L636.63 410L636.63 399.94Q636.63 398.47 635.88 397.63Q635.13 396.80 633.79 396.80L633.79 396.80Q632.46 396.80 631.63 397.65Q630.81 398.50 630.81 400.03ZM648.97 416.41L645.38 416.41L646.75 406.38L652.03 406.38L648.97 416.41ZM679.80 392.53L679.80 416.53L674.36 416.53L674.36 407.17L674.24 407.17Q673.72 408.36 672.53 409.30Q671.33 410.25 669.33 410.25L669.33 410.25Q667.39 410.25 665.80 409.24Q664.21 408.23 663.27 406.24Q662.33 404.25 662.33 401.28L662.33 401.28Q662.33 398.22 663.31 396.23Q664.28 394.25 665.87 393.28Q667.46 392.31 669.28 392.31L669.28 392.31Q670.67 392.31 671.66 392.79Q672.64 393.27 673.28 394.01Q673.91 394.75 674.24 395.53L674.24 395.53L674.42 395.53L674.42 392.53L679.80 392.53ZM671.19 406L671.19 406Q672.74 406 673.61 404.71Q674.49 403.42 674.49 401.28L674.49 401.28Q674.49 399.11 673.62 397.84Q672.75 396.58 671.19 396.58L671.19 396.58Q669.61 396.58 668.78 397.87Q667.94 399.16 667.94 401.28L667.94 401.28Q667.94 403.41 668.78 404.70Q669.61 406 671.19 406ZM689.15 410.22L689.15 410.22Q686.40 410.22 684.75 408.42Q683.09 406.63 683.09 403.66L683.09 403.66L683.09 392.53L688.54 392.53L688.54 402.59Q688.54 404.06 689.30 404.90Q690.06 405.73 691.39 405.73L691.39 405.73Q692.73 405.73 693.55 404.88Q694.37 404.03 694.37 402.50L694.37 402.50L694.37 392.53L699.82 392.53L699.82 410L694.70 410L694.62 406.22Q693.92 408.05 692.59 409.13Q691.26 410.22 689.15 410.22ZM711.24 410.33L711.24 410.33Q707.13 410.33 704.78 407.93Q702.43 405.53 702.43 401.33L702.43 401.33Q702.43 398.64 703.48 396.61Q704.53 394.58 706.47 393.45Q708.41 392.31 711.03 392.31L711.03 392.31Q713.49 392.31 715.39 393.34Q717.28 394.36 718.37 396.35Q719.46 398.34 719.46 401.22L719.46 401.22L719.46 402.59L707.78 402.59Q707.86 404.48 708.82 405.43Q709.78 406.38 711.33 406.38L711.33 406.38Q712.43 406.38 713.22 405.91Q714.02 405.45 714.35 404.58L714.35 404.58L719.21 405.38Q718.55 407.64 716.48 408.98Q714.41 410.33 711.24 410.33ZM707.82 399.42L707.82 399.42L714.28 399.42Q714.13 397.94 713.32 397.10Q712.50 396.27 711.08 396.27L711.08 396.27Q709.64 396.27 708.81 397.12Q707.97 397.97 707.82 399.42ZM729.36 410.33L729.36 410.33Q726.00 410.33 723.83 408.91Q721.67 407.50 721.21 405L721.21 405L726.28 404.20Q726.61 405.34 727.39 405.92Q728.17 406.50 729.56 406.50L729.56 406.50Q730.70 406.50 731.36 406.10Q732.01 405.70 732.01 405.05L732.01 405.05Q732.01 403.91 729.87 403.48L729.87 403.48L726.82 402.89Q721.65 401.91 721.65 397.86L721.65 397.86Q721.65 395.25 723.74 393.78Q725.82 392.31 729.34 392.31L729.34 392.31Q732.62 392.31 734.61 393.61Q736.59 394.91 737.04 397.16L737.04 397.16L732.23 397.92Q731.70 396.06 729.43 396.06L729.43 396.06Q728.45 396.06 727.77 396.46Q727.09 396.86 727.09 397.53L727.09 397.53Q727.09 398.06 727.51 398.46Q727.93 398.86 729.06 399.08L729.06 399.08L732.40 399.70Q737.54 400.67 737.54 404.42L737.54 404.42Q737.54 406.22 736.49 407.55Q735.43 408.88 733.59 409.60Q731.75 410.33 729.36 410.33ZM746.30 392.53L749.44 392.53L749.44 396.58L746.30 396.58L746.30 404.66Q746.30 406.02 747.69 406.02L747.69 406.02Q747.97 406.02 748.48 405.95Q748.99 405.88 749.21 405.83L749.21 405.83L749.91 409.80Q748.99 410.06 748.13 410.16Q747.27 410.25 746.50 410.25L746.50 410.25Q743.72 410.25 742.29 408.95Q740.85 407.64 740.85 405.14L740.85 405.14L740.85 396.58L738.54 396.58L738.54 392.53L740.85 392.53L740.85 388.38L746.30 388.38L746.30 392.53ZM757.37 410L751.92 410L751.92 392.53L757.37 392.53L757.37 410ZM754.64 390.48L754.64 390.48Q753.48 390.48 752.65 389.72Q751.82 388.95 751.82 387.86L751.82 387.86Q751.82 386.77 752.65 386Q753.48 385.23 754.64 385.23L754.64 385.23Q755.81 385.23 756.64 386Q757.47 386.77 757.47 387.86L757.47 387.86Q757.47 388.95 756.64 389.72Q755.81 390.48 754.64 390.48ZM768.77 410.33L768.77 410.33Q766.04 410.33 764.07 409.20Q762.10 408.06 761.04 406.04Q759.99 404.02 759.99 401.33L759.99 401.33Q759.99 398.64 761.04 396.61Q762.10 394.58 764.07 393.45Q766.04 392.31 768.77 392.31L768.77 392.31Q771.50 392.31 773.47 393.45Q775.43 394.58 776.48 396.61Q777.54 398.64 777.54 401.33L777.54 401.33Q777.54 404.02 776.48 406.04Q775.43 408.06 773.47 409.20Q771.50 410.33 768.77 410.33ZM768.77 406.16L768.77 406.16Q770.33 406.16 771.16 404.82Q771.99 403.48 771.99 401.30L771.99 401.30Q771.99 399.11 771.16 397.80Q770.33 396.48 768.77 396.48L768.77 396.48Q767.21 396.48 766.38 397.80Q765.55 399.11 765.55 401.30L765.55 401.30Q765.55 403.48 766.38 404.82Q767.21 406.16 768.77 406.16ZM785.61 400.03L785.61 400.03L785.61 410L780.15 410L780.15 392.53L785.28 392.53L785.37 396.30Q786.06 394.48 787.39 393.40Q788.72 392.31 790.84 392.31L790.84 392.31Q793.58 392.31 795.23 394.11Q796.89 395.91 796.89 398.88L796.89 398.88L796.89 410L791.43 410L791.43 399.94Q791.43 398.47 790.68 397.63Q789.93 396.80 788.59 396.80L788.59 396.80Q787.26 396.80 786.43 397.65Q785.61 398.50 785.61 400.03ZM807.52 410.33L807.52 410.33Q804.16 410.33 802.00 408.91Q799.83 407.50 799.38 405L799.38 405L804.44 404.20Q804.77 405.34 805.55 405.92Q806.33 406.50 807.72 406.50L807.72 406.50Q808.86 406.50 809.52 406.10Q810.18 405.70 810.18 405.05L810.18 405.05Q810.18 403.91 808.04 403.48L808.04 403.48L804.99 402.89Q799.82 401.91 799.82 397.86L799.82 397.86Q799.82 395.25 801.90 393.78Q803.99 392.31 807.51 392.31L807.51 392.31Q810.79 392.31 812.77 393.61Q814.76 394.91 815.21 397.16L815.21 397.16L810.40 397.92Q809.86 396.06 807.60 396.06L807.60 396.06Q806.61 396.06 805.94 396.46Q805.26 396.86 805.26 397.53L805.26 397.53Q805.26 398.06 805.68 398.46Q806.10 398.86 807.22 399.08L807.22 399.08L810.57 399.70Q815.71 400.67 815.71 404.42L815.71 404.42Q815.71 406.22 814.65 407.55Q813.60 408.88 811.76 409.60Q809.91 410.33 807.52 410.33ZM832.91 416.91L832.91 416.91Q829.49 416.91 827.38 415.64Q825.27 414.38 824.80 412.33L824.80 412.33L829.54 411.36Q829.77 412.06 830.59 412.59Q831.41 413.11 832.88 413.11L832.88 413.11Q834.55 413.11 835.45 412.36Q836.35 411.61 836.35 410.05L836.35 410.05L836.35 406.95L835.93 406.95Q835.44 408.14 834.30 408.95Q833.15 409.77 831.19 409.77L831.19 409.77Q829.27 409.77 827.69 408.87Q826.10 407.97 825.15 406.09Q824.19 404.20 824.19 401.27L824.19 401.27Q824.19 398.20 825.17 396.22Q826.15 394.23 827.74 393.27Q829.33 392.31 831.18 392.31L831.18 392.31Q833.26 392.31 834.47 393.33Q835.68 394.34 836.18 395.53L836.18 395.53L836.33 395.53L836.33 392.53L841.72 392.53L841.72 409.61Q841.72 412.02 840.61 413.64Q839.49 415.27 837.51 416.09Q835.52 416.91 832.91 416.91ZM833.05 405.77L833.05 405.77Q834.62 405.77 835.48 404.57Q836.35 403.38 836.35 401.25L836.35 401.25Q836.35 399.09 835.49 397.84Q834.63 396.58 833.05 396.58L833.05 396.58Q831.47 396.58 830.64 397.86Q829.80 399.14 829.80 401.25L829.80 401.25Q829.80 403.36 830.65 404.56Q831.49 405.77 833.05 405.77ZM853.11 410.33L853.11 410.33Q850.37 410.33 848.40 409.20Q846.44 408.06 845.38 406.04Q844.33 404.02 844.33 401.33L844.33 401.33Q844.33 398.64 845.38 396.61Q846.44 394.58 848.40 393.45Q850.37 392.31 853.11 392.31L853.11 392.31Q855.84 392.31 857.80 393.45Q859.76 394.58 860.82 396.61Q861.87 398.64 861.87 401.33L861.87 401.33Q861.87 404.02 860.82 406.04Q859.76 408.06 857.80 409.20Q855.84 410.33 853.11 410.33ZM853.11 406.16L853.11 406.16Q854.67 406.16 855.50 404.82Q856.33 403.48 856.33 401.30L856.33 401.30Q856.33 399.11 855.50 397.80Q854.67 396.48 853.11 396.48L853.11 396.48Q851.55 396.48 850.72 397.80Q849.89 399.11 849.89 401.30L849.89 401.30Q849.89 403.48 850.72 404.82Q851.55 406.16 853.11 406.16ZM877.45 392.53L880.59 392.53L880.59 396.58L877.45 396.58L877.45 404.66Q877.45 406.02 878.84 406.02L878.84 406.02Q879.12 406.02 879.63 405.95Q880.14 405.88 880.36 405.83L880.36 405.83L881.06 409.80Q880.14 410.06 879.28 410.16Q878.42 410.25 877.66 410.25L877.66 410.25Q874.87 410.25 873.44 408.95Q872.00 407.64 872.00 405.14L872.00 405.14L872.00 396.58L869.69 396.58L869.69 392.53L872.00 392.53L872.00 388.38L877.45 388.38L877.45 392.53ZM891.18 410.33L891.18 410.33Q888.44 410.33 886.48 409.20Q884.51 408.06 883.45 406.04Q882.40 404.02 882.40 401.33L882.40 401.33Q882.40 398.64 883.45 396.61Q884.51 394.58 886.48 393.45Q888.44 392.31 891.18 392.31L891.18 392.31Q893.91 392.31 895.87 393.45Q897.84 394.58 898.89 396.61Q899.94 398.64 899.94 401.33L899.94 401.33Q899.94 404.02 898.89 406.04Q897.84 408.06 895.87 409.20Q893.91 410.33 891.18 410.33ZM891.18 406.16L891.18 406.16Q892.74 406.16 893.57 404.82Q894.40 403.48 894.40 401.30L894.40 401.30Q894.40 399.11 893.57 397.80Q892.74 396.48 891.18 396.48L891.18 396.48Q889.62 396.48 888.79 397.80Q887.96 399.11 887.96 401.30L887.96 401.30Q887.96 403.48 888.79 404.82Q889.62 406.16 891.18 406.16ZM914.30 410L908.18 410L915.95 386.72L923.34 386.72L931.34 410L925.15 410L923.57 405.05L915.82 405.05L914.30 410ZM917.43 399.83L917.12 400.83L922.23 400.83L921.91 399.83Q921.30 397.83 920.73 395.64Q920.15 393.45 919.59 391.11L919.59 391.11Q919.05 393.47 918.53 395.66Q918.01 397.84 917.43 399.83L917.43 399.83ZM933.56 386.72L939.08 386.72L939.08 410L933.56 410L933.56 386.72Z"/>

  <!-- Terminal-style install line -->
  <g>
    <rect x="100" y="480" width="631.1999999999998" height="48" rx="10" fill="#1a0b1f" stroke="#10b981" stroke-opacity="0.35" stroke-width="1"/>
    <path fill="#10b981" d="M117.28 513.08L115.92 513.08L115.92 510.18Q113.76 510 112.52 508.81Q111.28 507.62 111.25 505.69L111.25 505.69L114.00 505.69Q114.00 506.50 114.51 507.04Q115.02 507.58 115.92 507.76L115.92 507.76L115.92 503.09L115.52 502.98Q113.63 502.50 112.61 501.24Q111.58 499.99 111.58 498.21L111.58 498.21Q111.58 496.34 112.75 495.14Q113.92 493.94 115.92 493.76L115.92 493.76L115.92 490.86L117.28 490.86L117.28 493.74Q119.33 493.92 120.50 495.10Q121.68 496.27 121.70 498.14L121.70 498.14L118.95 498.14Q118.95 496.51 117.28 496.18L117.28 496.18L117.28 500.63L118.01 500.83Q119.92 501.31 120.93 502.55Q121.95 503.80 121.95 505.62L121.95 505.62Q121.95 507.54 120.68 508.78Q119.42 510.02 117.28 510.20L117.28 510.20L117.28 513.08ZM114.33 498.05L114.33 498.05Q114.33 498.82 114.74 499.40Q115.15 499.97 115.92 500.23L115.92 500.23L115.92 496.18Q114.33 496.49 114.33 498.05ZM117.28 503.53L117.28 507.78Q118.18 507.65 118.69 507.11Q119.20 506.57 119.20 505.73L119.20 505.73Q119.20 504.92 118.69 504.32Q118.18 503.73 117.28 503.53L117.28 503.53Z"/>
    <path fill="#fafafa" d="M144.80 510.22L144.80 510.22Q143.24 510.22 142.08 509.64Q140.93 509.05 140.29 507.99Q139.65 506.92 139.65 505.47L139.65 505.47L139.65 502.43Q139.65 500.98 140.29 499.91Q140.93 498.85 142.08 498.26Q143.24 497.68 144.80 497.68L144.80 497.68Q147.06 497.68 148.44 498.86Q149.81 500.03 149.88 502.06L149.88 502.06L147.17 502.06Q147.11 501.11 146.46 500.60Q145.81 500.08 144.80 500.08L144.80 500.08Q143.68 500.08 143.04 500.68Q142.40 501.29 142.40 502.41L142.40 502.41L142.40 505.47Q142.40 506.59 143.04 507.21Q143.68 507.82 144.80 507.82L144.80 507.82Q145.83 507.82 146.47 507.31Q147.11 506.79 147.17 505.84L147.17 505.84L149.88 505.84Q149.81 507.87 148.44 509.04Q147.06 510.22 144.80 510.22ZM157.80 510.22L157.80 510.22Q155.49 510.22 154.17 508.93Q152.85 507.65 152.85 505.42L152.85 505.42L152.85 497.90L155.60 497.90L155.60 505.40Q155.60 506.55 156.17 507.18Q156.74 507.82 157.80 507.82L157.80 507.82Q158.83 507.82 159.42 507.18Q160 506.55 160 505.40L160 505.40L160 497.90L162.75 497.90L162.75 505.42Q162.75 507.65 161.41 508.93Q160.07 510.22 157.80 510.22ZM169.28 510L166.53 510L166.53 497.90L169.22 497.90L169.22 500.25Q169.44 499.07 170.31 498.37Q171.18 497.68 172.56 497.68L172.56 497.68Q174.41 497.68 175.44 498.87Q176.48 500.06 176.48 502.19L176.48 502.19L176.48 503.33L173.73 503.33L173.73 502.32Q173.73 501.22 173.16 500.64Q172.58 500.06 171.53 500.06L171.53 500.06Q170.43 500.06 169.86 500.72Q169.28 501.38 169.28 502.59L169.28 502.59L169.28 510ZM189.90 510L186.16 510Q184.35 510 183.26 508.92Q182.18 507.84 182.18 506.08L182.18 506.08L182.18 496.43L178.19 496.43L178.19 493.94L184.93 493.94L184.93 506.02Q184.93 506.70 185.31 507.11Q185.70 507.51 186.36 507.51L186.36 507.51L189.90 507.51L189.90 510ZM214.12 504.02L207.08 504.02L207.08 501.46L214.12 501.46L214.12 504.02ZM224.35 510L221.60 510L221.60 502.04L218.28 502.04L218.28 499.55L221.60 499.55L221.60 497.42Q221.60 495.83 222.66 494.89Q223.71 493.94 225.45 493.94L225.45 493.94L228.99 493.94L228.99 496.36L225.52 496.36Q224.99 496.36 224.67 496.66Q224.35 496.95 224.35 497.46L224.35 497.46L224.35 499.55L228.99 499.55L228.99 502.04L224.35 502.04L224.35 510ZM237.46 510.20L236.49 510.20Q234.34 510.20 233.08 509.22Q231.83 508.24 231.83 506.57L231.83 506.57L234.54 506.57Q234.54 507.27 235.05 507.65Q235.57 508.02 236.49 508.02L236.49 508.02L237.46 508.02Q238.45 508.02 238.99 507.65Q239.53 507.27 239.53 506.57L239.53 506.57Q239.53 505.91 239.16 505.59Q238.78 505.27 238.01 505.16L238.01 505.16L235.00 504.76Q233.55 504.57 232.76 503.64Q231.98 502.72 231.98 501.24L231.98 501.24Q231.98 499.53 233.13 498.62Q234.27 497.70 236.43 497.70L236.43 497.70L237.44 497.70Q239.46 497.70 240.70 498.63Q241.93 499.55 241.97 501.09L241.97 501.09L239.24 501.09Q239.22 500.52 238.74 500.18Q238.25 499.84 237.44 499.84L237.44 499.84L236.43 499.84Q235.55 499.84 235.09 500.20Q234.62 500.56 234.62 501.18L234.62 501.18Q234.62 501.73 234.96 501.99Q235.31 502.26 235.97 502.32L235.97 502.32L238.80 502.72Q240.48 502.92 241.32 503.89Q242.17 504.87 242.17 506.52L242.17 506.52Q242.17 508.28 240.97 509.24Q239.77 510.20 237.46 510.20L237.46 510.20ZM250.27 510.22L250.27 510.22Q248.64 510.22 247.42 509.65Q246.20 509.08 245.52 508.01Q244.85 506.94 244.85 505.47L244.85 505.47L247.56 505.47Q247.56 506.55 248.30 507.18Q249.03 507.82 250.27 507.82L250.27 507.82Q251.45 507.82 252.15 507.19Q252.84 506.57 252.84 505.51L252.84 505.51Q252.84 504.72 252.39 504.12Q251.94 503.51 251.10 503.29L251.10 503.29L248.95 502.74Q247.21 502.30 246.20 501.09Q245.18 499.88 245.18 498.21L245.18 498.21Q245.18 496.16 246.53 494.94Q247.87 493.72 250.11 493.72L250.11 493.72Q251.63 493.72 252.76 494.27Q253.90 494.82 254.51 495.82Q255.13 496.82 255.13 498.16L255.13 498.16L252.44 498.16Q252.44 497.24 251.81 496.67Q251.17 496.10 250.11 496.10L250.11 496.10Q249.08 496.10 248.47 496.66Q247.87 497.22 247.87 498.12L247.87 498.12Q247.87 498.87 248.30 499.35Q248.73 499.84 249.50 500.06L249.50 500.06L251.72 500.61Q253.50 501.05 254.52 502.37Q255.55 503.69 255.55 505.51L255.55 505.51Q255.55 506.94 254.90 508.00Q254.25 509.05 253.06 509.64Q251.87 510.22 250.27 510.22ZM269.03 510L259.46 510L259.46 493.94L262.21 493.94L262.21 507.51L269.03 507.51L269.03 510ZM287.64 510L284.89 510L284.89 493.94L287.64 493.94L287.64 497.90L287.58 500.14Q287.80 499 288.66 498.34Q289.51 497.68 290.83 497.68L290.83 497.68Q292.62 497.68 293.68 498.87Q294.75 500.06 294.75 502.06L294.75 502.06L294.75 510L292.00 510L292.00 502.39Q292.00 501.27 291.42 500.66Q290.83 500.06 289.84 500.06L289.84 500.06Q288.81 500.06 288.23 500.67Q287.64 501.29 287.64 502.43L287.64 502.43L287.64 510ZM307.99 510L304.21 510Q302.52 510 301.51 509.02Q300.51 508.04 300.51 506.37L300.51 506.37L300.51 500.39L297.17 500.39L297.17 497.90L300.51 497.90L300.51 494.49L303.29 494.49L303.29 497.90L308.10 497.90L308.10 500.39L303.29 500.39L303.29 506.30Q303.29 506.83 303.58 507.17Q303.88 507.51 304.41 507.51L304.41 507.51L307.99 507.51L307.99 510ZM321.19 510L317.41 510Q315.72 510 314.71 509.02Q313.71 508.04 313.71 506.37L313.71 506.37L313.71 500.39L310.37 500.39L310.37 497.90L313.71 497.90L313.71 494.49L316.49 494.49L316.49 497.90L321.30 497.90L321.30 500.39L316.49 500.39L316.49 506.30Q316.49 506.83 316.78 507.17Q317.08 507.51 317.61 507.51L317.61 507.51L321.19 507.51L321.19 510ZM327.24 513.96L324.49 513.96L324.49 497.90L327.18 497.90L327.18 500.12Q327.51 498.98 328.37 498.33Q329.22 497.68 330.50 497.68L330.50 497.68Q331.67 497.68 332.56 498.25Q333.45 498.82 333.94 499.87Q334.44 500.91 334.44 502.30L334.44 502.30L334.44 505.58Q334.44 507.67 333.36 508.94Q332.28 510.22 330.50 510.22L330.50 510.22Q329.22 510.22 328.35 509.56Q327.49 508.90 327.16 507.71L327.16 507.71L327.24 510.57L327.24 513.96ZM329.47 507.84L329.47 507.84Q330.52 507.84 331.10 507.27Q331.69 506.70 331.69 505.51L331.69 505.51L331.69 502.39Q331.69 501.20 331.10 500.63Q330.52 500.06 329.47 500.06L329.47 500.06Q328.41 500.06 327.83 500.69Q327.24 501.33 327.24 502.50L327.24 502.50L327.24 505.40Q327.24 506.57 327.83 507.21Q328.41 507.84 329.47 507.84ZM343.06 510.20L342.09 510.20Q339.94 510.20 338.68 509.22Q337.43 508.24 337.43 506.57L337.43 506.57L340.14 506.57Q340.14 507.27 340.65 507.65Q341.17 508.02 342.09 508.02L342.09 508.02L343.06 508.02Q344.05 508.02 344.59 507.65Q345.13 507.27 345.13 506.57L345.13 506.57Q345.13 505.91 344.76 505.59Q344.38 505.27 343.61 505.16L343.61 505.16L340.60 504.76Q339.15 504.57 338.36 503.64Q337.58 502.72 337.58 501.24L337.58 501.24Q337.58 499.53 338.73 498.62Q339.87 497.70 342.03 497.70L342.03 497.70L343.04 497.70Q345.06 497.70 346.30 498.63Q347.53 499.55 347.57 501.09L347.57 501.09L344.84 501.09Q344.82 500.52 344.34 500.18Q343.85 499.84 343.04 499.84L343.04 499.84L342.03 499.84Q341.15 499.84 340.69 500.20Q340.22 500.56 340.22 501.18L340.22 501.18Q340.22 501.73 340.56 501.99Q340.91 502.26 341.57 502.32L341.57 502.32L344.40 502.72Q346.08 502.92 346.92 503.89Q347.77 504.87 347.77 506.52L347.77 506.52Q347.77 508.28 346.57 509.24Q345.37 510.20 343.06 510.20L343.06 510.20ZM355.80 501.35L355.80 501.35Q354.85 501.35 354.30 500.85Q353.75 500.34 353.75 499.51L353.75 499.51Q353.75 498.69 354.30 498.19Q354.85 497.68 355.80 497.68L355.80 497.68Q356.75 497.68 357.30 498.19Q357.85 498.69 357.85 499.51L357.85 499.51Q357.85 500.34 357.30 500.85Q356.75 501.35 355.80 501.35ZM355.80 510.22L355.80 510.22Q354.85 510.22 354.30 509.71Q353.75 509.21 353.75 508.39L353.75 508.39Q353.75 507.56 354.30 507.05Q354.85 506.55 355.80 506.55L355.80 506.55Q356.75 506.55 357.30 507.05Q357.85 507.56 357.85 508.39L357.85 508.39Q357.85 509.21 357.30 509.71Q356.75 510.22 355.80 510.22ZM366.58 512.42L363.72 512.42L371.42 491.74L374.28 491.74L366.58 512.42ZM379.78 512.42L376.92 512.42L384.62 491.74L387.48 491.74L379.78 512.42ZM401.10 510L397.36 510Q395.55 510 394.46 508.92Q393.38 507.84 393.38 506.08L393.38 506.08L393.38 496.43L389.39 496.43L389.39 493.94L396.13 493.94L396.13 506.02Q396.13 506.70 396.51 507.11Q396.90 507.51 397.56 507.51L397.56 507.51L401.10 507.51L401.10 510ZM407.26 510.22L407.26 510.22Q405.41 510.22 404.34 509.18Q403.28 508.13 403.28 506.44L403.28 506.44Q403.28 504.68 404.49 503.63Q405.70 502.59 407.81 502.59L407.81 502.59L410.76 502.59L410.76 501.73Q410.76 499.90 408.62 499.90L408.62 499.90Q407.65 499.90 407.08 500.28Q406.51 500.65 406.44 501.33L406.44 501.33L403.80 501.33Q403.89 499.70 405.18 498.69Q406.47 497.68 408.64 497.68L408.64 497.68Q410.95 497.68 412.23 498.76Q413.51 499.84 413.51 501.79L413.51 501.79L413.51 510L410.82 510L410.82 507.73Q410.67 508.90 409.72 509.56Q408.78 510.22 407.26 510.22ZM408.14 507.98L408.14 507.98Q409.35 507.98 410.05 507.38Q410.76 506.79 410.76 505.80L410.76 505.80L410.76 504.37L407.94 504.37Q407.04 504.37 406.51 504.87Q405.98 505.38 405.98 506.17L405.98 506.17Q405.98 506.99 406.54 507.48Q407.10 507.98 408.14 507.98ZM422.00 510.22L422.00 510.22Q420.44 510.22 419.28 509.64Q418.13 509.05 417.49 507.99Q416.85 506.92 416.85 505.47L416.85 505.47L416.85 502.43Q416.85 500.98 417.49 499.91Q418.13 498.85 419.28 498.26Q420.44 497.68 422.00 497.68L422.00 497.68Q424.26 497.68 425.64 498.86Q427.01 500.03 427.08 502.06L427.08 502.06L424.37 502.06Q424.31 501.11 423.66 500.60Q423.01 500.08 422.00 500.08L422.00 500.08Q420.88 500.08 420.24 500.68Q419.60 501.29 419.60 502.41L419.60 502.41L419.60 505.47Q419.60 506.59 420.24 507.21Q420.88 507.82 422.00 507.82L422.00 507.82Q423.03 507.82 423.67 507.31Q424.31 506.79 424.37 505.84L424.37 505.84L427.08 505.84Q427.01 507.87 425.64 509.04Q424.26 510.22 422.00 510.22ZM434.91 513.96L432.03 513.96L433.75 509.34L429.19 497.90L432.10 497.90L434.43 504.08Q434.63 504.63 434.82 505.28Q435.02 505.93 435.11 506.48L435.11 506.48Q435.18 505.93 435.36 505.28Q435.55 504.63 435.75 504.08L435.75 504.08L437.90 497.90L440.81 497.90L434.91 513.96ZM448.20 510.22L448.20 510.22Q447.28 510.22 446.71 509.66Q446.15 509.10 446.15 508.20L446.15 508.20Q446.15 507.29 446.71 506.72Q447.28 506.15 448.20 506.15L448.20 506.15Q449.12 506.15 449.68 506.72Q450.25 507.29 450.25 508.20L450.25 508.20Q450.25 509.10 449.68 509.66Q449.12 510.22 448.20 510.22ZM461.86 510.20L460.89 510.20Q458.74 510.20 457.48 509.22Q456.23 508.24 456.23 506.57L456.23 506.57L458.94 506.57Q458.94 507.27 459.45 507.65Q459.97 508.02 460.89 508.02L460.89 508.02L461.86 508.02Q462.85 508.02 463.39 507.65Q463.93 507.27 463.93 506.57L463.93 506.57Q463.93 505.91 463.56 505.59Q463.18 505.27 462.41 505.16L462.41 505.16L459.40 504.76Q457.95 504.57 457.16 503.64Q456.38 502.72 456.38 501.24L456.38 501.24Q456.38 499.53 457.53 498.62Q458.67 497.70 460.83 497.70L460.83 497.70L461.84 497.70Q463.86 497.70 465.10 498.63Q466.33 499.55 466.37 501.09L466.37 501.09L463.64 501.09Q463.62 500.52 463.14 500.18Q462.65 499.84 461.84 499.84L461.84 499.84L460.83 499.84Q459.95 499.84 459.49 500.20Q459.02 500.56 459.02 501.18L459.02 501.18Q459.02 501.73 459.36 501.99Q459.71 502.26 460.37 502.32L460.37 502.32L463.20 502.72Q464.88 502.92 465.72 503.89Q466.57 504.87 466.57 506.52L466.57 506.52Q466.57 508.28 465.37 509.24Q464.17 510.20 461.86 510.20L461.86 510.20ZM472.44 510L469.69 510L469.69 493.94L472.44 493.94L472.44 497.90L472.38 500.14Q472.60 499 473.46 498.34Q474.31 497.68 475.63 497.68L475.63 497.68Q477.42 497.68 478.48 498.87Q479.55 500.06 479.55 502.06L479.55 502.06L479.55 510L476.80 510L476.80 502.39Q476.80 501.27 476.22 500.66Q475.63 500.06 474.64 500.06L474.64 500.06Q473.61 500.06 473.03 500.67Q472.44 501.29 472.44 502.43L472.44 502.43L472.44 510ZM485.38 512.42L482.52 512.42L490.22 491.74L493.08 491.74L485.38 512.42ZM506.68 510L496.07 510L496.07 507.51L500.21 507.51L500.21 500.39L496.51 500.39L496.51 497.90L502.96 497.90L502.96 507.51L506.68 507.51L506.68 510ZM501.40 495.88L501.40 495.88Q500.56 495.88 500.08 495.45Q499.59 495.02 499.59 494.29L499.59 494.29Q499.59 493.57 500.08 493.14Q500.56 492.71 501.40 492.71L501.40 492.71Q502.23 492.71 502.72 493.14Q503.20 493.57 503.20 494.29L503.20 494.29Q503.20 495.02 502.72 495.45Q502.23 495.88 501.40 495.88ZM512.04 510L509.29 510L509.29 497.90L511.98 497.90L511.98 500.17Q512.20 499.02 513.06 498.35Q513.91 497.68 515.23 497.68L515.23 497.68Q517.02 497.68 518.08 498.87Q519.15 500.06 519.15 502.06L519.15 502.06L519.15 510L516.40 510L516.40 502.39Q516.40 501.27 515.82 500.66Q515.23 500.06 514.24 500.06L514.24 500.06Q513.21 500.06 512.63 500.67Q512.04 501.29 512.04 502.43L512.04 502.43L512.04 510ZM527.86 510.20L526.89 510.20Q524.74 510.20 523.48 509.22Q522.23 508.24 522.23 506.57L522.23 506.57L524.94 506.57Q524.94 507.27 525.45 507.65Q525.97 508.02 526.89 508.02L526.89 508.02L527.86 508.02Q528.85 508.02 529.39 507.65Q529.93 507.27 529.93 506.57L529.93 506.57Q529.93 505.91 529.56 505.59Q529.18 505.27 528.41 505.16L528.41 505.16L525.40 504.76Q523.95 504.57 523.16 503.64Q522.38 502.72 522.38 501.24L522.38 501.24Q522.38 499.53 523.53 498.62Q524.67 497.70 526.83 497.70L526.83 497.70L527.84 497.70Q529.86 497.70 531.10 498.63Q532.33 499.55 532.37 501.09L532.37 501.09L529.64 501.09Q529.62 500.52 529.14 500.18Q528.65 499.84 527.84 499.84L527.84 499.84L526.83 499.84Q525.95 499.84 525.49 500.20Q525.02 500.56 525.02 501.18L525.02 501.18Q525.02 501.73 525.36 501.99Q525.71 502.26 526.37 502.32L526.37 502.32L529.20 502.72Q530.88 502.92 531.72 503.89Q532.57 504.87 532.57 506.52L532.57 506.52Q532.57 508.28 531.37 509.24Q530.17 510.20 527.86 510.20L527.86 510.20ZM545.59 510L541.81 510Q540.12 510 539.11 509.02Q538.11 508.04 538.11 506.37L538.11 506.37L538.11 500.39L534.77 500.39L534.77 497.90L538.11 497.90L538.11 494.49L540.89 494.49L540.89 497.90L545.70 497.90L545.70 500.39L540.89 500.39L540.89 506.30Q540.89 506.83 541.18 507.17Q541.48 507.51 542.01 507.51L542.01 507.51L545.59 507.51L545.59 510ZM552.46 510.22L552.46 510.22Q550.61 510.22 549.54 509.18Q548.48 508.13 548.48 506.44L548.48 506.44Q548.48 504.68 549.69 503.63Q550.90 502.59 553.01 502.59L553.01 502.59L555.96 502.59L555.96 501.73Q555.96 499.90 553.82 499.90L553.82 499.90Q552.85 499.90 552.28 500.28Q551.71 500.65 551.64 501.33L551.64 501.33L549.00 501.33Q549.09 499.70 550.38 498.69Q551.67 497.68 553.84 497.68L553.84 497.68Q556.15 497.68 557.43 498.76Q558.71 499.84 558.71 501.79L558.71 501.79L558.71 510L556.02 510L556.02 507.73Q555.87 508.90 554.92 509.56Q553.98 510.22 552.46 510.22ZM553.34 507.98L553.34 507.98Q554.55 507.98 555.25 507.38Q555.96 506.79 555.96 505.80L555.96 505.80L555.96 504.37L553.14 504.37Q552.24 504.37 551.71 504.87Q551.18 505.38 551.18 506.17L551.18 506.17Q551.18 506.99 551.74 507.48Q552.30 507.98 553.34 507.98ZM572.70 510L568.96 510Q567.15 510 566.06 508.92Q564.98 507.84 564.98 506.08L564.98 506.08L564.98 496.43L560.99 496.43L560.99 493.94L567.73 493.94L567.73 506.02Q567.73 506.70 568.11 507.11Q568.50 507.51 569.16 507.51L569.16 507.51L572.70 507.51L572.70 510ZM585.90 510L582.16 510Q580.35 510 579.26 508.92Q578.18 507.84 578.18 506.08L578.18 506.08L578.18 496.43L574.19 496.43L574.19 493.94L580.93 493.94L580.93 506.02Q580.93 506.70 581.31 507.11Q581.70 507.51 582.36 507.51L582.36 507.51L585.90 507.51L585.90 510ZM607.99 512.42L605.21 512.42L605.21 491.74L607.99 491.74L607.99 512.42ZM634.10 510.22L634.10 510.22Q632.82 510.22 631.97 509.58Q631.11 508.94 630.78 507.80L630.78 507.80L630.78 510L628.09 510L628.09 493.94L630.84 493.94L630.84 497.33L630.76 500.10Q631.11 498.96 631.98 498.32Q632.85 497.68 634.10 497.68L634.10 497.68Q635.88 497.68 636.96 498.93Q638.04 500.19 638.04 502.32L638.04 502.32L638.04 505.60Q638.04 507.71 636.95 508.97Q635.86 510.22 634.10 510.22ZM633.07 507.84L633.07 507.84Q634.12 507.84 634.71 507.27Q635.29 506.70 635.29 505.51L635.29 505.51L635.29 502.39Q635.29 501.20 634.71 500.63Q634.12 500.06 633.07 500.06L633.07 500.06Q632.01 500.06 631.43 500.69Q630.84 501.33 630.84 502.50L630.84 502.50L630.84 505.40Q630.84 506.57 631.43 507.21Q632.01 507.84 633.07 507.84ZM644.86 510.22L644.86 510.22Q643.01 510.22 641.94 509.18Q640.88 508.13 640.88 506.44L640.88 506.44Q640.88 504.68 642.09 503.63Q643.30 502.59 645.41 502.59L645.41 502.59L648.36 502.59L648.36 501.73Q648.36 499.90 646.22 499.90L646.22 499.90Q645.25 499.90 644.68 500.28Q644.11 500.65 644.04 501.33L644.04 501.33L641.40 501.33Q641.49 499.70 642.78 498.69Q644.07 497.68 646.24 497.68L646.24 497.68Q648.55 497.68 649.83 498.76Q651.11 499.84 651.11 501.79L651.11 501.79L651.11 510L648.42 510L648.42 507.73Q648.27 508.90 647.32 509.56Q646.38 510.22 644.86 510.22ZM645.74 507.98L645.74 507.98Q646.95 507.98 647.65 507.38Q648.36 506.79 648.36 505.80L648.36 505.80L648.36 504.37L645.54 504.37Q644.64 504.37 644.11 504.87Q643.58 505.38 643.58 506.17L643.58 506.17Q643.58 506.99 644.14 507.48Q644.70 507.98 645.74 507.98ZM659.86 510.20L658.89 510.20Q656.74 510.20 655.48 509.22Q654.23 508.24 654.23 506.57L654.23 506.57L656.94 506.57Q656.94 507.27 657.45 507.65Q657.97 508.02 658.89 508.02L658.89 508.02L659.86 508.02Q660.85 508.02 661.39 507.65Q661.93 507.27 661.93 506.57L661.93 506.57Q661.93 505.91 661.56 505.59Q661.18 505.27 660.41 505.16L660.41 505.16L657.40 504.76Q655.95 504.57 655.17 503.64Q654.38 502.72 654.38 501.24L654.38 501.24Q654.38 499.53 655.53 498.62Q656.67 497.70 658.83 497.70L658.83 497.70L659.84 497.70Q661.86 497.70 663.10 498.63Q664.33 499.55 664.37 501.09L664.37 501.09L661.64 501.09Q661.62 500.52 661.14 500.18Q660.65 499.84 659.84 499.84L659.84 499.84L658.83 499.84Q657.95 499.84 657.49 500.20Q657.02 500.56 657.02 501.18L657.02 501.18Q657.02 501.73 657.37 501.99Q657.71 502.26 658.37 502.32L658.37 502.32L661.20 502.72Q662.88 502.92 663.72 503.89Q664.57 504.87 664.57 506.52L664.57 506.52Q664.57 508.28 663.37 509.24Q662.17 510.20 659.86 510.20L659.86 510.20ZM670.44 510L667.69 510L667.69 493.94L670.44 493.94L670.44 497.90L670.38 500.14Q670.60 499 671.46 498.34Q672.31 497.68 673.63 497.68L673.63 497.68Q675.42 497.68 676.48 498.87Q677.55 500.06 677.55 502.06L677.55 502.06L677.55 510L674.80 510L674.80 502.39Q674.80 501.27 674.22 500.66Q673.63 500.06 672.64 500.06L672.64 500.06Q671.61 500.06 671.03 500.67Q670.44 501.29 670.44 502.43L670.44 502.43L670.44 510Z"/>
  </g>

  <path fill="#6b6275" d="M1016.36 577.45L1019.77 577.45L1019.77 592L1016.36 592L1016.36 577.45ZM1025.08 592.20L1025.08 592.20Q1023.51 592.20 1022.50 591.39Q1021.49 590.59 1021.49 588.97L1021.49 588.97Q1021.49 587.76 1022.05 587.05Q1022.60 586.34 1023.53 585.99Q1024.45 585.65 1025.55 585.55L1025.55 585.55Q1026.94 585.44 1027.54 585.27Q1028.14 585.10 1028.14 584.59L1028.14 584.59L1028.14 584.55Q1028.14 583.98 1027.75 583.67Q1027.35 583.37 1026.66 583.37L1026.66 583.37Q1025.94 583.37 1025.48 583.67Q1025.03 583.97 1024.89 584.49L1024.89 584.49L1021.80 584.09Q1022.13 582.69 1023.38 581.82Q1024.63 580.95 1026.69 580.95L1026.69 580.95Q1028.04 580.95 1029.14 581.37Q1030.24 581.79 1030.89 582.60Q1031.54 583.42 1031.54 584.59L1031.54 584.59L1031.54 592L1028.34 592L1028.34 590.47L1028.25 590.47Q1027.34 592.20 1025.08 592.20ZM1026.12 589.94L1026.12 589.94Q1026.98 589.94 1027.57 589.43Q1028.17 588.92 1028.17 588.11L1028.17 588.11L1028.17 587.07Q1027.88 587.22 1027.32 587.33Q1026.76 587.44 1026.29 587.52L1026.29 587.52Q1024.71 587.75 1024.71 588.82L1024.71 588.82Q1024.71 589.36 1025.11 589.65Q1025.50 589.94 1026.12 589.94ZM1038.86 592.21L1038.86 592.21Q1037.15 592.21 1035.92 591.50Q1034.69 590.79 1034.03 589.52Q1033.38 588.26 1033.38 586.58L1033.38 586.58Q1033.38 584.90 1034.03 583.63Q1034.69 582.36 1035.92 581.65Q1037.15 580.95 1038.86 580.95L1038.86 580.95Q1040.95 580.95 1042.30 581.99Q1043.64 583.04 1043.89 584.82L1043.89 584.82L1040.75 585.35Q1040.58 584.49 1040.12 584.02Q1039.65 583.55 1038.90 583.55L1038.90 583.55Q1037.93 583.55 1037.39 584.35Q1036.85 585.14 1036.85 586.56L1036.85 586.56Q1036.85 587.97 1037.39 588.78Q1037.93 589.60 1038.90 589.60L1038.90 589.60Q1039.65 589.60 1040.13 589.11Q1040.60 588.62 1040.76 587.74L1040.76 587.74L1043.90 588.25Q1043.65 590.09 1042.31 591.15Q1040.97 592.21 1038.86 592.21ZM1045.67 595.83L1045.67 595.83L1046.43 593.34L1046.86 593.46Q1047.78 593.70 1048.35 593.43Q1048.91 593.15 1048.87 592.48L1048.87 592.48L1048.86 592.02L1044.79 581.08L1048.38 581.08L1050.02 586.42Q1050.23 587.13 1050.38 587.83Q1050.52 588.53 1050.66 589.27L1050.66 589.27Q1050.83 588.52 1051.01 587.82Q1051.20 587.12 1051.42 586.42L1051.42 586.42L1053.17 581.08L1056.72 581.08L1052.14 593.15Q1051.65 594.48 1050.66 595.32Q1049.67 596.16 1047.84 596.16L1047.84 596.16Q1046.52 596.16 1045.67 595.83ZM1061.47 592L1058.06 592L1058.06 581.08L1061.20 581.08L1061.35 583.25Q1061.80 582.02 1062.66 581.48Q1063.51 580.94 1064.50 580.94L1064.50 580.94Q1065.53 580.94 1066.22 581.53Q1066.91 582.13 1067.31 583.46L1067.31 583.46Q1067.81 582.12 1068.78 581.53Q1069.75 580.94 1070.86 580.94L1070.86 580.94Q1072.39 580.94 1073.37 581.92Q1074.35 582.91 1074.35 584.64L1074.35 584.64L1074.35 592L1070.94 592L1070.94 585.41Q1070.94 584.58 1070.51 584.15Q1070.08 583.72 1069.41 583.72L1069.41 583.72Q1068.69 583.72 1068.27 584.19Q1067.85 584.67 1067.85 585.45L1067.85 585.45L1067.85 592L1064.58 592L1064.58 585.36Q1064.58 584.61 1064.15 584.16Q1063.73 583.72 1063.05 583.72L1063.05 583.72Q1062.36 583.72 1061.92 584.19Q1061.47 584.66 1061.47 585.52L1061.47 585.52L1061.47 592ZM1081.68 592.21L1081.68 592.21Q1079.97 592.21 1078.74 591.50Q1077.51 590.79 1076.85 589.52Q1076.19 588.26 1076.19 586.58L1076.19 586.58Q1076.19 584.90 1076.85 583.63Q1077.51 582.36 1078.74 581.65Q1079.97 580.95 1081.68 580.95L1081.68 580.95Q1083.38 580.95 1084.61 581.65Q1085.84 582.36 1086.50 583.63Q1087.15 584.90 1087.15 586.58L1087.15 586.58Q1087.15 588.26 1086.50 589.52Q1085.84 590.79 1084.61 591.50Q1083.38 592.21 1081.68 592.21ZM1081.68 589.60L1081.68 589.60Q1082.65 589.60 1083.17 588.76Q1083.69 587.93 1083.69 586.56L1083.69 586.56Q1083.69 585.19 1083.17 584.37Q1082.65 583.55 1081.68 583.55L1081.68 583.55Q1080.70 583.55 1080.18 584.37Q1079.66 585.19 1079.66 586.56L1079.66 586.56Q1079.66 587.93 1080.18 588.76Q1080.70 589.60 1081.68 589.60ZM1092.40 592L1088.99 592L1088.99 581.08L1092.30 581.08L1092.30 583.07L1092.42 583.07Q1092.71 582 1093.39 581.47Q1094.07 580.95 1094.97 580.95L1094.97 580.95Q1095.46 580.95 1095.93 581.06L1095.93 581.06L1095.93 584.03Q1095.69 583.94 1095.29 583.90Q1094.90 583.86 1094.59 583.86L1094.59 583.86Q1093.64 583.86 1093.02 584.46Q1092.40 585.07 1092.40 586.04L1092.40 586.04L1092.40 592ZM1100.80 592L1097.39 592L1097.39 581.08L1100.70 581.08L1100.70 583.07L1100.82 583.07Q1101.11 582 1101.79 581.47Q1102.47 580.95 1103.37 580.95L1103.37 580.95Q1103.86 580.95 1104.33 581.06L1104.33 581.06L1104.33 584.03Q1104.09 583.94 1103.69 583.90Q1103.30 583.86 1102.98 583.86L1102.98 583.86Q1102.04 583.86 1101.42 584.46Q1100.80 585.07 1100.80 586.04L1100.80 586.04L1100.80 592ZM1110.86 592.21L1110.86 592.21Q1109.15 592.21 1107.92 591.50Q1106.69 590.79 1106.03 589.52Q1105.37 588.26 1105.37 586.58L1105.37 586.58Q1105.37 584.90 1106.03 583.63Q1106.69 582.36 1107.92 581.65Q1109.15 580.95 1110.86 580.95L1110.86 580.95Q1112.56 580.95 1113.79 581.65Q1115.02 582.36 1115.67 583.63Q1116.33 584.90 1116.33 586.58L1116.33 586.58Q1116.33 588.26 1115.67 589.52Q1115.02 590.79 1113.79 591.50Q1112.56 592.21 1110.86 592.21ZM1110.86 589.60L1110.86 589.60Q1111.83 589.60 1112.35 588.76Q1112.87 587.93 1112.87 586.56L1112.87 586.56Q1112.87 585.19 1112.35 584.37Q1111.83 583.55 1110.86 583.55L1110.86 583.55Q1109.88 583.55 1109.36 584.37Q1108.84 585.19 1108.84 586.56L1108.84 586.56Q1108.84 587.93 1109.36 588.76Q1109.88 589.60 1110.86 589.60ZM1123.85 592L1120.38 592L1117.19 581.08L1120.76 581.08L1121.56 584.82Q1121.74 585.75 1121.96 586.79Q1122.17 587.82 1122.38 589.00L1122.38 589.00Q1122.59 587.83 1122.84 586.79Q1123.08 585.75 1123.30 584.82L1123.30 584.82L1124.17 581.08L1127.19 581.08L1128.03 584.82Q1128.24 585.76 1128.48 586.79Q1128.73 587.83 1128.95 589.02L1128.95 589.02Q1129.14 587.84 1129.34 586.80Q1129.55 585.76 1129.74 584.82L1129.74 584.82L1130.53 581.08L1134.16 581.08L1130.94 592L1127.47 592L1126.33 588.08Q1126.17 587.49 1126.00 586.67Q1125.83 585.86 1125.66 585.07L1125.66 585.07Q1125.49 585.86 1125.33 586.67Q1125.16 587.49 1124.99 588.08L1124.99 588.08L1123.85 592ZM1139.19 576.77L1142.10 576.77L1137.41 594.19L1134.50 594.19L1139.19 576.77ZM1143.42 577.45L1146.83 577.45L1146.83 592L1143.42 592L1143.42 577.45ZM1152.14 592.20L1152.14 592.20Q1150.57 592.20 1149.56 591.39Q1148.55 590.59 1148.55 588.97L1148.55 588.97Q1148.55 587.76 1149.11 587.05Q1149.66 586.34 1150.59 585.99Q1151.51 585.65 1152.61 585.55L1152.61 585.55Q1154 585.44 1154.60 585.27Q1155.20 585.10 1155.20 584.59L1155.20 584.59L1155.20 584.55Q1155.20 583.98 1154.81 583.67Q1154.41 583.37 1153.72 583.37L1153.72 583.37Q1153.00 583.37 1152.54 583.67Q1152.09 583.97 1151.95 584.49L1151.95 584.49L1148.86 584.09Q1149.19 582.69 1150.44 581.82Q1151.70 580.95 1153.75 580.95L1153.75 580.95Q1155.10 580.95 1156.20 581.37Q1157.30 581.79 1157.95 582.60Q1158.60 583.42 1158.60 584.59L1158.60 584.59L1158.60 592L1155.40 592L1155.40 590.47L1155.31 590.47Q1154.40 592.20 1152.14 592.20ZM1153.18 589.94L1153.18 589.94Q1154.04 589.94 1154.63 589.43Q1155.23 588.92 1155.23 588.11L1155.23 588.11L1155.23 587.07Q1154.94 587.22 1154.38 587.33Q1153.82 587.44 1153.35 587.52L1153.35 587.52Q1151.77 587.75 1151.77 588.82L1151.77 588.82Q1151.77 589.36 1152.17 589.65Q1152.56 589.94 1153.18 589.94ZM1165.92 592.21L1165.92 592.21Q1164.21 592.21 1162.98 591.50Q1161.75 590.79 1161.09 589.52Q1160.44 588.26 1160.44 586.58L1160.44 586.58Q1160.44 584.90 1161.09 583.63Q1161.75 582.36 1162.98 581.65Q1164.21 580.95 1165.92 580.95L1165.92 580.95Q1168.01 580.95 1169.36 581.99Q1170.70 583.04 1170.95 584.82L1170.95 584.82L1167.81 585.35Q1167.64 584.49 1167.18 584.02Q1166.71 583.55 1165.96 583.55L1165.96 583.55Q1164.99 583.55 1164.45 584.35Q1163.91 585.14 1163.91 586.56L1163.91 586.56Q1163.91 587.97 1164.45 588.78Q1164.99 589.60 1165.96 589.60L1165.96 589.60Q1166.71 589.60 1167.19 589.11Q1167.66 588.62 1167.82 587.74L1167.82 587.74L1170.96 588.25Q1170.71 590.09 1169.37 591.15Q1168.03 592.21 1165.92 592.21ZM1172.73 595.83L1172.73 595.83L1173.49 593.34L1173.92 593.46Q1174.84 593.70 1175.41 593.43Q1175.97 593.15 1175.93 592.48L1175.93 592.48L1175.92 592.02L1171.85 581.08L1175.45 581.08L1177.08 586.42Q1177.29 587.13 1177.44 587.83Q1177.58 588.53 1177.72 589.27L1177.72 589.27Q1177.89 588.52 1178.07 587.82Q1178.26 587.12 1178.48 586.42L1178.48 586.42L1180.23 581.08L1183.79 581.08L1179.21 593.15Q1178.71 594.48 1177.72 595.32Q1176.73 596.16 1174.90 596.16L1174.90 596.16Q1173.58 596.16 1172.73 595.83Z"/>
</svg>
